# xmcd
#
# Track frame offsets:
# 150
# 19425
# 44287
# 63702
# 88612
# 104362
# 122100
# 138587
# 157000
# 174387
# 194847
# 216860
# 230172
#
# Disc length: 3315 seconds
#
#
# Revision: 3
# Processed by: cddbd v1.5.1PL0 Copyright (c) Steve Scherf et al.
# Submitted via: FreeRIP 2.931 
#
DISCID=c90cf10d
DTITLE=Luther Johnson - Country Sugar Papa
DYEAR=1994
DGENRE=Blues
TTITLE0=Walkin' With You Baby
TTITLE1=If The Blues Was Whiskey
TTITLE2=Big Leg Woman
TTITLE3=Called Me On The Phone Last Night
TTITLE4=You Told Me Baby
TTITLE5=Southern Country Boy
TTITLE6=I'm A King Bee
TTITLE7=Can't Come Home
TTITLE8=I'm Going Back, Back, Back
TTITLE9=I Love You
TTITLE10=Whiskey Drinkin' Woman
TTITLE11=Ain't Treating Me Right
TTITLE12=You Belong To Me
EXTD=YEAR: 1994
EXTT0=
EXTT1=
EXTT2=
EXTT3=
EXTT4=
EXTT5=
EXTT6=
EXTT7=
EXTT8=
EXTT9=
EXTT10=
EXTT11=
EXTT12=
PLAYORDER=
